<svg xmlns:xlink="http://www.w3.org/1999/xlink" width="22.227ex" height="2.509ex" style="font-size: 15px; vertical-align: -0.338ex;" viewBox="0 -934.9 9570.1 1080.4" role="img" focusable="false" xmlns="http://www.w3.org/2000/svg">
<defs>
<path stroke-width="1" id="E1-MJMAINB-45" d="M723 286Q721 284 700 145T677 3V0H39V62H147V618H39V680H660V676Q662 670 675 552T691 428V424H629V428Q629 429 627 448T618 494T601 541Q574 593 527 605T382 618H374H304V384H336Q338 384 347 384T361 384T376 386T392 390T407 397T421 407T432 423Q442 444 443 482V501H505V205H443V224Q442 258 435 278T411 307T380 318T336 322H304V62H375H394Q429 62 449 62T497 66T541 76T577 95T609 126T632 170T651 232Q661 287 661 289H723V286Z"></path>
<path stroke-width="1" id="E1-MJMAINB-78" d="M227 0Q212 3 121 3Q40 3 28 0H21V62H117L245 213L109 382H26V444H34Q49 441 143 441Q247 441 265 444H274V382H246L281 339Q315 297 316 297Q320 297 354 341L389 382H352V444H360Q375 441 466 441Q547 441 559 444H566V382H471L355 246L504 63L545 62H586V0H578Q563 3 469 3Q365 3 347 0H338V62H366Q366 63 326 112T285 163L198 63L217 62H235V0H227Z"></path>
<path stroke-width="1" id="E1-MJMAINB-65" d="M32 225Q32 332 102 392T272 452H283Q382 452 436 401Q494 343 494 243Q494 226 486 222T440 217Q431 217 394 217T327 218H175V209Q175 177 179 154T196 107T236 69T306 50Q312 49 323 49Q376 49 410 85Q421 99 427 111T434 127T442 133T463 135H468Q494 135 494 117Q494 110 489 97T468 66T431 32T373 5T292 -6Q181 -6 107 55T32 225ZM383 276Q377 346 348 374T280 402Q253 402 230 390T195 357Q179 331 176 279V266H383V276Z"></path>
<path stroke-width="1" id="E1-MJMAINB-72" d="M405 293T374 293T324 312T305 361Q305 378 312 394Q315 397 315 399Q305 399 294 394T266 375T238 329T222 249Q221 241 221 149V62H308V0H298Q280 3 161 3Q47 3 38 0H29V62H98V210V303Q98 353 96 363T83 376Q69 380 42 380H29V442H32L118 446Q204 450 205 450H210V414L211 378Q247 449 315 449H321Q384 449 413 422T442 360Q442 332 424 313Z"></path>
<path stroke-width="1" id="E1-MJMAINB-63" d="M447 131H458Q478 131 478 117Q478 112 471 95T439 51T377 9Q330 -6 286 -6Q196 -6 135 35Q39 96 39 222Q39 324 101 384Q169 453 286 453Q359 453 411 431T464 353Q464 319 445 302T395 284Q360 284 343 305T325 353Q325 380 338 396H333Q317 398 295 398H292Q280 398 271 397T245 390T218 373T197 338T183 283Q182 275 182 231Q182 199 184 180T193 132T220 85T270 57Q289 50 317 50H326Q385 50 414 115Q419 127 423 129T447 131Z"></path>
<path stroke-width="1" id="E1-MJMAINB-69" d="M72 610Q72 649 98 672T159 695Q193 693 217 670T241 610Q241 572 217 549T157 525Q120 525 96 548T72 610ZM46 442L136 446L226 450H232V62H294V0H286Q271 3 171 3Q67 3 49 0H40V62H109V209Q109 358 108 362Q103 380 55 380H43V442H46Z"></path>
<path stroke-width="1" id="E1-MJMAINB-73" d="M38 315Q38 339 45 360T70 404T127 440T223 453Q273 453 320 436L338 445L357 453H366Q380 453 383 447T386 403V387V355Q386 331 383 326T365 321H355H349Q333 321 329 324T324 341Q317 406 224 406H216Q123 406 123 353Q123 334 143 321T188 304T244 294T285 286Q305 281 325 273T373 237T412 172Q414 162 414 142Q414 -6 230 -6Q154 -6 117 22L68 -6H58Q44 -6 41 0T38 42V73Q38 85 38 101T37 122Q37 144 42 148T68 153H75Q87 153 91 151T97 147T103 132Q131 46 220 46H230Q257 46 265 47Q330 58 330 108Q330 127 316 142Q300 156 284 162Q271 168 212 178T122 202Q38 243 38 315Z"></path>
<path stroke-width="1" id="E1-MJMAINB-34" d="M531 0Q510 3 381 3Q238 3 214 0H201V62H313V155H32V217L205 434Q342 606 362 630T387 655L391 656Q395 656 401 656T414 656H427Q447 656 451 645Q453 641 453 429V217H542V155H453V62H542V0H531ZM324 217V494L103 218L213 217H324Z"></path>
<path stroke-width="1" id="E1-MJMAINB-2E" d="M74 85Q74 121 99 146T156 171Q200 171 222 143T245 85Q245 56 224 29T160 1Q118 1 96 27T74 85Z"></path>
<path stroke-width="1" id="E1-MJMAINB-31" d="M481 0L294 3Q136 3 109 0H96V62H227V304Q227 546 225 546Q169 529 97 529H80V591H97Q231 591 308 647L319 655H333Q355 655 359 644Q361 640 361 351V62H494V0H481Z"></path>
<path stroke-width="1" id="E1-MJMAINB-32" d="M175 580Q175 578 185 572T205 551T215 510Q215 467 191 449T137 430Q107 430 83 448T58 511Q58 558 91 592T168 640T259 654Q328 654 383 637Q451 610 484 563T517 459Q517 401 482 360T368 262Q340 243 265 184L210 140H274Q416 140 429 145Q439 148 447 186T455 237H517V233Q516 230 501 119Q489 9 486 4V0H57V25Q57 51 58 54Q60 57 109 106T215 214T288 291Q364 377 364 458Q364 515 328 553T231 592Q214 592 201 589T181 584T175 580Z"></path>
<path stroke-width="1" id="E1-MJMAINB-3A" d="M74 359Q74 394 98 419T158 444Q200 444 222 417T245 358Q245 329 224 302T160 274Q116 274 95 301T74 359ZM74 85Q74 121 99 146T156 171Q200 171 222 143T245 85Q245 56 224 29T160 1Q118 1 96 27T74 85Z"></path>
</defs>
<g stroke="currentColor" fill="currentColor" stroke-width="0" transform="matrix(1 0 0 -1 0 0)">
<g fill="darkorange" stroke="darkorange">
<g fill="darkorange" stroke="darkorange">
<g fill="darkorange" stroke="darkorange">
<g fill="darkorange" stroke="darkorange">
<g fill="darkorange" stroke="darkorange">
<g fill="darkorange" stroke="darkorange">
<g fill="darkorange" stroke="darkorange">
<g fill="darkorange" stroke="darkorange">
<g fill="darkorange" stroke="darkorange">
 <use transform="scale(1.2)" xlink:href="#E1-MJMAINB-45"></use>
</g>
<g fill="darkorange" stroke="darkorange" transform="translate(907,0)">
 <use transform="scale(1.2)" xlink:href="#E1-MJMAINB-78"></use>
</g>
<g fill="darkorange" stroke="darkorange" transform="translate(1636,0)">
 <use transform="scale(1.2)" xlink:href="#E1-MJMAINB-65"></use>
</g>
<g fill="darkorange" stroke="darkorange" transform="translate(2269,0)">
 <use transform="scale(1.2)" xlink:href="#E1-MJMAINB-72"></use>
</g>
<g fill="darkorange" stroke="darkorange" transform="translate(2839,0)">
 <use transform="scale(1.2)" xlink:href="#E1-MJMAINB-63"></use>
</g>
<g fill="darkorange" stroke="darkorange" transform="translate(3453,0)">
 <use transform="scale(1.2)" xlink:href="#E1-MJMAINB-69"></use>
</g>
<g fill="darkorange" stroke="darkorange" transform="translate(3836,0)">
 <use transform="scale(1.2)" xlink:href="#E1-MJMAINB-73"></use>
</g>
<g fill="darkorange" stroke="darkorange" transform="translate(4381,0)">
 <use transform="scale(1.2)" xlink:href="#E1-MJMAINB-65"></use>
</g>
<g fill="darkorange" stroke="darkorange"></g>
<g fill="darkorange" stroke="darkorange" transform="translate(6014,0)">
 <use transform="scale(1.2)" xlink:href="#E1-MJMAINB-34"></use>
 <use transform="scale(1.2)" xlink:href="#E1-MJMAINB-2E" x="575" y="0"></use>
 <use transform="scale(1.2)" xlink:href="#E1-MJMAINB-31" x="895" y="0"></use>
 <use transform="scale(1.2)" xlink:href="#E1-MJMAINB-2E" x="1470" y="0"></use>
 <use transform="scale(1.2)" xlink:href="#E1-MJMAINB-32" x="1790" y="0"></use>
</g>
<g fill="darkorange" stroke="darkorange" transform="translate(9186,0)">
 <use transform="scale(1.2)" xlink:href="#E1-MJMAINB-3A"></use>
</g>
</g>
</g>
</g>
</g>
</g>
</g>
</g>
</g>
</g>
</svg>