<?xml version="1.0" encoding="UTF-8"?> <svg xmlns="http://www.w3.org/2000/svg" class="highcharts-root" style="font-family:&quot;Lucida Grande&quot;, &quot;Lucida Sans Unicode&quot;, Arial, Helvetica, sans-serif;font-size:12px;" width="902" height="405" viewBox="0 0 902 405"><desc>Created with Highstock 7.0.1</desc><defs><clipPath id="highcharts-0487nha-147"><rect x="0" y="0" width="846" height="294" fill="none"></rect></clipPath></defs><rect class="highcharts-background" x="0" y="0" width="902" height="405" rx="0" ry="0" style="fill: rgba(255, 255, 255, 0);"></rect><rect fill="none" class="highcharts-plot-background" x="46" y="10" width="846" height="294"></rect><g class="highcharts-pane-group" data-z-index="0"></g><g class="highcharts-grid highcharts-xaxis-grid " data-z-index="1"><path fill="none" data-z-index="1" class="highcharts-grid-line" d="M 122.5 10 L 122.5 304" opacity="1"></path><path fill="none" data-z-index="1" class="highcharts-grid-line" d="M 199.5 10 L 199.5 304" opacity="1"></path><path fill="none" data-z-index="1" class="highcharts-grid-line" d="M 276.5 10 L 276.5 304" opacity="1"></path><path fill="none" data-z-index="1" class="highcharts-grid-line" d="M 353.5 10 L 353.5 304" opacity="1"></path><path fill="none" data-z-index="1" class="highcharts-grid-line" d="M 430.5 10 L 430.5 304" opacity="1"></path><path fill="none" data-z-index="1" class="highcharts-grid-line" d="M 506.5 10 L 506.5 304" opacity="1"></path><path fill="none" data-z-index="1" class="highcharts-grid-line" d="M 583.5 10 L 583.5 304" opacity="1"></path><path fill="none" data-z-index="1" class="highcharts-grid-line" d="M 660.5 10 L 660.5 304" opacity="1"></path><path fill="none" data-z-index="1" class="highcharts-grid-line" d="M 737.5 10 L 737.5 304" opacity="1"></path><path fill="none" data-z-index="1" class="highcharts-grid-line" d="M 814.5 10 L 814.5 304" opacity="1"></path><path fill="none" data-z-index="1" class="highcharts-grid-line" d="M 891.5 10 L 891.5 304" opacity="1"></path><path fill="none" data-z-index="1" class="highcharts-grid-line" d="M 45.5 10 L 45.5 304" opacity="1"></path></g><g class="highcharts-grid highcharts-yaxis-grid " data-z-index="1"><path fill="none" stroke="#e6e6e6" stroke-width="1" data-z-index="1" class="highcharts-grid-line" d="M 46 304.5 L 892 304.5" opacity="1"></path><path fill="none" stroke="#e6e6e6" stroke-width="1" data-z-index="1" class="highcharts-grid-line" d="M 46 245.5 L 892 245.5" opacity="1"></path><path fill="none" stroke="#e6e6e6" stroke-width="1" data-z-index="1" class="highcharts-grid-line" d="M 46 186.5 L 892 186.5" opacity="1"></path><path fill="none" stroke="#e6e6e6" stroke-width="1" data-z-index="1" class="highcharts-grid-line" d="M 46 128.5 L 892 128.5" opacity="1"></path><path fill="none" stroke="#e6e6e6" stroke-width="1" data-z-index="1" class="highcharts-grid-line" d="M 46 69.5 L 892 69.5" opacity="1"></path><path fill="none" stroke="#e6e6e6" stroke-width="1" data-z-index="1" class="highcharts-grid-line" d="M 46 9.5 L 892 9.5" opacity="1"></path></g><rect fill="none" class="highcharts-plot-border" data-z-index="1" x="46" y="10" width="846" height="294"></rect><g class="highcharts-axis highcharts-xaxis " data-z-index="2"><path fill="none" class="highcharts-tick" stroke="#ccd6eb" stroke-width="1" d="M 122.5 304 L 122.5 314" opacity="1"></path><path fill="none" class="highcharts-tick" stroke="#ccd6eb" stroke-width="1" d="M 199.5 304 L 199.5 314" opacity="1"></path><path fill="none" class="highcharts-tick" stroke="#ccd6eb" stroke-width="1" d="M 276.5 304 L 276.5 314" opacity="1"></path><path fill="none" class="highcharts-tick" stroke="#ccd6eb" stroke-width="1" d="M 353.5 304 L 353.5 314" opacity="1"></path><path fill="none" class="highcharts-tick" stroke="#ccd6eb" stroke-width="1" d="M 430.5 304 L 430.5 314" opacity="1"></path><path fill="none" class="highcharts-tick" stroke="#ccd6eb" stroke-width="1" d="M 506.5 304 L 506.5 314" opacity="1"></path><path fill="none" class="highcharts-tick" stroke="#ccd6eb" stroke-width="1" d="M 583.5 304 L 583.5 314" opacity="1"></path><path fill="none" class="highcharts-tick" stroke="#ccd6eb" stroke-width="1" d="M 660.5 304 L 660.5 314" opacity="1"></path><path fill="none" class="highcharts-tick" stroke="#ccd6eb" stroke-width="1" d="M 737.5 304 L 737.5 314" opacity="1"></path><path fill="none" class="highcharts-tick" stroke="#ccd6eb" stroke-width="1" d="M 814.5 304 L 814.5 314" opacity="1"></path><path fill="none" class="highcharts-tick" stroke="#ccd6eb" stroke-width="1" d="M 892.5 304 L 892.5 314" opacity="1"></path><path fill="none" class="highcharts-tick" stroke="#ccd6eb" stroke-width="1" d="M 45.5 304 L 45.5 314" opacity="1"></path><path fill="none" class="highcharts-axis-line" stroke="#ccd6eb" stroke-width="1" data-z-index="7" d="M 46 304.5 L 892 304.5"></path></g><g class="highcharts-axis highcharts-yaxis " data-z-index="2"><path fill="none" class="highcharts-axis-line" data-z-index="7" d="M 46 10 L 46 304"></path></g><g class="highcharts-series-group" data-z-index="3"><g data-z-index="0.1" class="highcharts-series highcharts-series-0 highcharts-line-series highcharts-color-0 " transform="translate(46,10) scale(1 1)" clip-path="url(#highcharts-0487nha-147)"><path fill="none" d="M 38.454545454545 222.264 L 115.36363636364 233.436 L 192.27272727273 225.204 L 269.18181818182 211.386 L 346.09090909091 145.824 L 423 142.88400000000001 L 499.90909090909 117.012 L 576.81818181818 180.81 L 653.72727272727 98.78399999999999 L 730.63636363636 42.92399999999998 L 807.54545454545 21.75600000000003" class="highcharts-graph" data-z-index="1" stroke="#D14648" stroke-width="2" stroke-linejoin="round" stroke-linecap="round"></path></g><g data-z-index="0.1" class="highcharts-markers highcharts-series-0 highcharts-line-series highcharts-color-0 " transform="translate(46,10) scale(1 1)" clip-path="none"><path fill="#D14648" d="M 42 222 A 4 4 0 1 1 41.99999800000017 221.99600000066667 Z" class="highcharts-point highcharts-color-0"></path><path fill="#D14648" d="M 119 233 A 4 4 0 1 1 118.99999800000016 232.99600000066667 Z" class="highcharts-point highcharts-color-0"></path><path fill="#D14648" d="M 196 225 A 4 4 0 1 1 195.99999800000018 224.99600000066667 Z" class="highcharts-point highcharts-color-0"></path><path fill="#D14648" d="M 273 211 A 4 4 0 1 1 272.9999980000002 210.99600000066667 Z" class="highcharts-point highcharts-color-0"></path><path fill="#D14648" d="M 350 146 A 4 4 0 1 1 349.9999980000002 145.99600000066667 Z" class="highcharts-point highcharts-color-0"></path><path fill="#D14648" d="M 427 143 A 4 4 0 1 1 426.9999980000002 142.99600000066667 Z" class="highcharts-point highcharts-color-0"></path><path fill="#D14648" d="M 503 117 A 4 4 0 1 1 502.9999980000002 116.99600000066667 Z" class="highcharts-point highcharts-color-0"></path><path fill="#D14648" d="M 580 181 A 4 4 0 1 1 579.9999980000001 180.99600000066667 Z" class="highcharts-point highcharts-color-0"></path><path fill="#D14648" d="M 657 99 A 4 4 0 1 1 656.9999980000001 98.99600000066667 Z" class="highcharts-point highcharts-color-0"></path><path fill="#D14648" d="M 734 43 A 4 4 0 1 1 733.9999980000001 42.99600000066666 Z" class="highcharts-point highcharts-color-0"></path><path fill="#D14648" d="M 811 22 A 4 4 0 1 1 810.9999980000001 21.996000000666665 Z" class="highcharts-point highcharts-color-0"></path></g></g><text x="451" text-anchor="middle" class="highcharts-title" data-z-index="4" style="color: rgb(51, 51, 51); font-size: 18px; font-family: &quot;Lucida Grande&quot;, &quot;Lucida Sans Unicode&quot;, Verdana, Arial, Helvetica, sans-serif; font-weight: bold; font-style: normal; fill: rgb(51, 51, 51); white-space: pre;" y="24"></text><text x="451" text-anchor="middle" class="highcharts-subtitle" data-z-index="4" style="color: rgb(102, 102, 102); fill: rgb(102, 102, 102); white-space: pre;" y="24"></text><g data-z-index="6" class="highcharts-data-labels highcharts-series-0 highcharts-line-series highcharts-color-0 " visibility="visible" transform="translate(46,10) scale(1 1)"><g class="highcharts-label highcharts-data-label highcharts-data-label-color-0 " data-z-index="1" transform="translate(21,199)"><text x="5" data-z-index="1" style="font-size: 11px; font-weight: bold; color: rgb(0, 0, 0); fill: rgb(0, 0, 0); white-space: pre;" y="16"><tspan x="5" y="16" class="highcharts-text-outline" fill="#FFFFFF" stroke="#FFFFFF" stroke-width="2px" stroke-linejoin="round" style="">24.4</tspan><tspan x="5" y="16">24.4</tspan></text></g><g class="highcharts-label highcharts-data-label highcharts-data-label-color-0 " data-z-index="1" transform="translate(98,210)"><text x="5" data-z-index="1" style="font-size: 11px; font-weight: bold; color: rgb(0, 0, 0); fill: rgb(0, 0, 0); white-space: pre;" y="16"><tspan x="5" y="16" class="highcharts-text-outline" fill="#FFFFFF" stroke="#FFFFFF" stroke-width="2px" stroke-linejoin="round">20.6</tspan><tspan x="5" y="16">20.6</tspan></text></g><g class="highcharts-label highcharts-data-label highcharts-data-label-color-0 " data-z-index="1" transform="translate(175,202)"><text x="5" data-z-index="1" style="font-size: 11px; font-weight: bold; color: rgb(0, 0, 0); fill: rgb(0, 0, 0); white-space: pre;" y="16"><tspan x="5" y="16" class="highcharts-text-outline" fill="#FFFFFF" stroke="#FFFFFF" stroke-width="2px" stroke-linejoin="round">23.4</tspan><tspan x="5" y="16">23.4</tspan></text></g><g class="highcharts-label highcharts-data-label highcharts-data-label-color-0 " data-z-index="1" transform="translate(252,188)"><text x="5" data-z-index="1" style="font-size: 11px; font-weight: bold; color: rgb(0, 0, 0); fill: rgb(0, 0, 0); white-space: pre;" y="16"><tspan x="5" y="16" class="highcharts-text-outline" fill="#FFFFFF" stroke="#FFFFFF" stroke-width="2px" stroke-linejoin="round">28.1</tspan><tspan x="5" y="16">28.1</tspan></text></g><g class="highcharts-label highcharts-data-label highcharts-data-label-color-0 " data-z-index="1" transform="translate(329,123)"><text x="5" data-z-index="1" style="font-size: 11px; font-weight: bold; color: rgb(0, 0, 0); fill: rgb(0, 0, 0); white-space: pre;" y="16"><tspan x="5" y="16" class="highcharts-text-outline" fill="#FFFFFF" stroke="#FFFFFF" stroke-width="2px" stroke-linejoin="round">50.4</tspan><tspan x="5" y="16">50.4</tspan></text></g><g class="highcharts-label highcharts-data-label highcharts-data-label-color-0 " data-z-index="1" transform="translate(406,120)"><text x="5" data-z-index="1" style="font-size: 11px; font-weight: bold; color: rgb(0, 0, 0); fill: rgb(0, 0, 0); white-space: pre;" y="16"><tspan x="5" y="16" class="highcharts-text-outline" fill="#FFFFFF" stroke="#FFFFFF" stroke-width="2px" stroke-linejoin="round">51.4</tspan><tspan x="5" y="16">51.4</tspan></text></g><g class="highcharts-label highcharts-data-label highcharts-data-label-color-0 " data-z-index="1" transform="translate(483,94)"><text x="5" data-z-index="1" style="font-size: 11px; font-weight: bold; color: rgb(0, 0, 0); fill: rgb(0, 0, 0); white-space: pre;" y="16"><tspan x="5" y="16" class="highcharts-text-outline" fill="#FFFFFF" stroke="#FFFFFF" stroke-width="2px" stroke-linejoin="round">60.2</tspan><tspan x="5" y="16">60.2</tspan></text></g><g class="highcharts-label highcharts-data-label highcharts-data-label-color-0 " data-z-index="1" transform="translate(560,158)"><text x="5" data-z-index="1" style="font-size: 11px; font-weight: bold; color: rgb(0, 0, 0); fill: rgb(0, 0, 0); white-space: pre;" y="16"><tspan x="5" y="16" class="highcharts-text-outline" fill="#FFFFFF" stroke="#FFFFFF" stroke-width="2px" stroke-linejoin="round">38.5</tspan><tspan x="5" y="16">38.5</tspan></text></g><g class="highcharts-label highcharts-data-label highcharts-data-label-color-0 " data-z-index="1" transform="translate(636,76)"><text x="5" data-z-index="1" style="font-size: 11px; font-weight: bold; color: rgb(0, 0, 0); fill: rgb(0, 0, 0); white-space: pre;" y="16"><tspan x="5" y="16" class="highcharts-text-outline" fill="#FFFFFF" stroke="#FFFFFF" stroke-width="2px" stroke-linejoin="round">66.4</tspan><tspan x="5" y="16">66.4</tspan></text></g><g class="highcharts-label highcharts-data-label highcharts-data-label-color-0 " data-z-index="1" transform="translate(713,20)"><text x="5" data-z-index="1" style="font-size: 11px; font-weight: bold; color: rgb(0, 0, 0); fill: rgb(0, 0, 0); white-space: pre;" y="16"><tspan x="5" y="16" class="highcharts-text-outline" fill="#FFFFFF" stroke="#FFFFFF" stroke-width="2px" stroke-linejoin="round">85.4</tspan><tspan x="5" y="16">85.4</tspan></text></g><g class="highcharts-label highcharts-data-label highcharts-data-label-color-0 " data-z-index="1" transform="translate(790,-1)"><text x="5" data-z-index="1" style="font-size: 11px; font-weight: bold; color: rgb(0, 0, 0); fill: rgb(0, 0, 0); white-space: pre;" y="16"><tspan x="5" y="16" class="highcharts-text-outline" fill="#FFFFFF" stroke="#FFFFFF" stroke-width="2px" stroke-linejoin="round">92.6</tspan><tspan x="5" y="16">92.6</tspan></text></g></g><g class="highcharts-legend" data-z-index="7" transform="translate(395,365)"><rect fill="none" class="highcharts-legend-box" rx="0" ry="0" x="0" y="0" width="112" height="25" visibility="visible"></rect><g data-z-index="1"><g><g class="highcharts-legend-item highcharts-line-series highcharts-color-0 highcharts-series-0" data-z-index="1" transform="translate(8,3)"><path fill="none" d="M 0 11 L 16 11" class="highcharts-graph" stroke="#D14648" stroke-width="2"></path><path fill="#D14648" d="M 12 11 A 4 4 0 1 1 11.999998000000167 10.996000000666664 Z" class="highcharts-point"></path><text x="21" style="color: rgb(51, 51, 51); cursor: pointer; font-size: 12px; font-weight: bold; fill: rgb(51, 51, 51); white-space: pre;" text-anchor="start" data-z-index="2" y="15"><tspan>Average FPS</tspan></text></g></g></g></g><g class="highcharts-axis-labels highcharts-xaxis-labels " data-z-index="7"><text x="84.45454545454454" style="color: rgb(102, 102, 102); cursor: default; font-size: 11px; fill: rgb(102, 102, 102); white-space: pre;" text-anchor="middle" transform="translate(0,0)" y="323" opacity="1"><tspan>13 MBA</tspan><tspan dy="14" x="84.45454545454454">(2015)</tspan></text><text x="161.36363636363455" style="color: rgb(102, 102, 102); cursor: default; font-size: 11px; fill: rgb(102, 102, 102); white-space: pre;" text-anchor="middle" transform="translate(0,0)" y="323" opacity="1"><tspan>13 MBA</tspan><tspan dy="14" x="161.36363636363455">(2014)</tspan></text><text x="238.27272727272458" style="color: rgb(102, 102, 102); cursor: default; font-size: 11px; fill: rgb(102, 102, 102); white-space: pre;" text-anchor="middle" transform="translate(0,0)" y="323" opacity="1"><tspan>13 MBP</tspan><tspan dy="14" x="238.27272727272458">(2013)</tspan></text><text x="315.18181818181455" style="color: rgb(102, 102, 102); cursor: default; font-size: 11px; fill: rgb(102, 102, 102); white-space: pre;" text-anchor="middle" transform="translate(0,0)" y="323" opacity="1"><tspan>13 MBP</tspan><tspan dy="14" x="315.18181818181455">(2015)</tspan></text><text x="392.0909090909046" style="color: rgb(102, 102, 102); cursor: default; font-size: 11px; fill: rgb(102, 102, 102); white-space: pre;" text-anchor="middle" transform="translate(0,0)" y="323" opacity="1"><tspan>13 MBP</tspan><tspan dy="14" x="392.0909090909046">(2016)</tspan></text><text x="469.00000000000455" style="color: rgb(102, 102, 102); cursor: default; font-size: 11px; fill: rgb(102, 102, 102); white-space: pre;" text-anchor="middle" transform="translate(0,0)" y="323" opacity="1"><tspan>13 MBP</tspan><tspan dy="14" x="469.00000000000455">(2016,</tspan><tspan dy="14" x="469.00000000000455">Touch Bar)</tspan></text><text x="545.9090909090945" style="color: rgb(102, 102, 102); cursor: default; font-size: 11px; fill: rgb(102, 102, 102); white-space: pre;" text-anchor="middle" transform="translate(0,0)" y="323" opacity="1"><tspan>13 MBP</tspan><tspan dy="14" x="545.9090909090945">(2017)</tspan></text><text x="622.8181818181845" style="color: rgb(102, 102, 102); cursor: default; font-size: 11px; fill: rgb(102, 102, 102); white-space: pre;" text-anchor="middle" transform="translate(0,0)" y="323" opacity="1"><tspan>15 MBP</tspan><tspan dy="14" x="622.8181818181845">(2013)</tspan></text><text x="699.7272727272745" style="color: rgb(102, 102, 102); cursor: default; font-size: 11px; fill: rgb(102, 102, 102); white-space: pre;" text-anchor="middle" transform="translate(0,0)" y="323" opacity="1"><tspan>15 MBP</tspan><tspan dy="14" x="699.7272727272745">(2015)</tspan></text><text x="776.6363636363645" style="color: rgb(102, 102, 102); cursor: default; font-size: 11px; fill: rgb(102, 102, 102); white-space: pre;" text-anchor="middle" transform="translate(0,0)" y="323" opacity="1"><tspan>15 MBP</tspan><tspan dy="14" x="776.6363636363645">(2016,</tspan><tspan dy="14" x="776.6363636363645">Touch Bar)</tspan></text><text x="853.5454545454545" style="color: rgb(102, 102, 102); cursor: default; font-size: 11px; fill: rgb(102, 102, 102); white-space: pre;" text-anchor="middle" transform="translate(0,0)" y="323" opacity="1"><tspan>15 MBP</tspan><tspan dy="14" x="853.5454545454545">(2017,</tspan><tspan dy="14" x="853.5454545454545">Touch Bar)</tspan></text></g><g class="highcharts-axis-labels highcharts-yaxis-labels " data-z-index="7"><text x="31" style="color: rgb(102, 102, 102); cursor: default; font-size: 11px; fill: rgb(102, 102, 102); white-space: pre;" text-anchor="end" transform="translate(0,0)" y="309" opacity="1">0</text><text x="31" style="color: rgb(102, 102, 102); cursor: default; font-size: 11px; fill: rgb(102, 102, 102); white-space: pre;" text-anchor="end" transform="translate(0,0)" y="250" opacity="1">20</text><text x="31" style="color: rgb(102, 102, 102); cursor: default; font-size: 11px; fill: rgb(102, 102, 102); white-space: pre;" text-anchor="end" transform="translate(0,0)" y="191" opacity="1">40</text><text x="31" style="color: rgb(102, 102, 102); cursor: default; font-size: 11px; fill: rgb(102, 102, 102); white-space: pre;" text-anchor="end" transform="translate(0,0)" y="132" opacity="1">60</text><text x="31" style="color: rgb(102, 102, 102); cursor: default; font-size: 11px; fill: rgb(102, 102, 102); white-space: pre;" text-anchor="end" transform="translate(0,0)" y="73" opacity="1">80</text><text x="31" style="color: rgb(102, 102, 102); cursor: default; font-size: 11px; fill: rgb(102, 102, 102); white-space: pre;" text-anchor="end" transform="translate(0,0)" y="15" opacity="1">100</text></g></svg> 